<svg 
width="26px" 
height="23px" 
viewBox="0 0 26 23" 
tint="#111927" 
type="camera">
<path 
d="M23.568 5.322a2.95 2.95 0 00-2.165-.897h-2.679l-.61-1.626c-.151-.39-.428-.728-.831-1.011-.403-.283-.816-.425-1.238-.425H9.92c-.423 
0-.836.142-1.238.425-.403.283-.68.62-.832 1.01l-.61 1.627H4.562c-.845 0-1.567.3-2.165.897A2.95 
2.95 0 001.5 7.487v10.717c0 .846.299 1.567.897 2.165a2.95 2.95 0 002.165.898h16.841c.845 
0 1.567-.3 2.165-.898a2.95 2.95 0 00.897-2.165V7.487a2.95 2.95 0 00-.897-2.165zm-7.63 
10.479c-.853.853-1.88 1.28-3.08 1.28-1.2 0-2.226-.427-3.079-1.28-.853-.853-1.279-1.88-1.279-3.08 
0-1.2.427-2.225 1.28-3.078.852-.853 1.879-1.28 3.079-1.28 1.2 0 2.226.427 3.079 1.28.853.852 1.28
 1.879 1.28 3.079 0 1.2-.427 2.226-1.28 3.079z" 
 fill-rule="nonzero" 
 stroke="#111927" 
 stroke-width="1.5" 
 fill="none">
 </path>
 </svg>
