<svg 
viewBox="0 0 32 32" 
id="community">
<g
     stroke="currentColor"
      stroke-width="1.2"
      fill="none"
      fill-rule="evenodd"
>
<path 
d="M28.12 16.16a3.69 3.69 0 0 0 1-2.49 3.76 3.76 0 1 0-7.51 0 3.69 3.69 0 0 0 1 2.49 5.75 5.75 0 0 0-1.88 1.72 5.85 5.85 0 0 
0-1.88-1.72 3.76 3.76 0 1 0-5.58 0 5.85 5.85 0 0 0-1.88 1.72 5.75 5.75 0 0 0-1.88-1.72 3.69 3.69 0 0 0 1-2.49 3.76 3.76 0 1 
0-7.51 0 3.69 3.69 0 0 0 1 2.49 5.67 5.67 0 0 0-3 4.93 1 1 0 0 0 1 1h28a1 1 0 0 0 1-1 5.67 5.67 0 0 0-2.88-4.93Zm-4.54-2.49a1.76 
1.76 0 1 1 1.75 1.75 1.75 1.75 0 0 1-1.75-1.75Zm-9.34 0A1.76 1.76 0 1 1 16 15.42a1.76 1.76 0 0 1-1.76-1.75Zm-9.33 0a1.76 1.76 0 
1 1 1.76 1.75 1.76 1.76 0 0 1-1.76-1.75Zm-1.77 6.42a3.66 3.66 0 0 1 7 0Zm9.33 0a3.67 3.67 0 0 1 7.06 0Zm9.34 0a3.66 3.66 0 0 1 7.05 0Z">
</path>
</g>

</svg>
