<svg
    width="30px"
    height="30px"
    viewBox="0 0 30 30"
    xmlns="http://www.w3.org/2000/svg"
    tint="#6D727F"
    type="logout"
    light="#6D727F"
    style="margin-left: -8px;"
  >
    <g
      fill="#6D727F"
      fill-rule="nonzero"
      stroke="#6D727F"
      stroke-width="0.3"
    >
      <path
        d="M14.655 21.033H8.914a.638.638 0
  01-.638-.638V8.914c0-.352.286-.638.638-.638h5.74a.637.637 0
  100-1.276h-5.74A1.916 1.916 0 007 8.914v11.481c0 1.055.859
  1.914 1.914 1.914h5.74a.637.637 0 100-1.276z"
      />
      <path
        d="M22.17 14.2l-3.878-3.827a.638.638 0 10-.896.908l2.772
  2.736H12.74a.637.637 0 100 1.275h7.427l-2.772 2.736a.638.638
  0 10.896.908l3.878-3.827a.64.64 0 000-.909z"
      />
    </g>
</svg>
